<svg width="17" height="18" viewBox="0 0 17 18" fill="none" xmlns="http://www.w3.org/2000/svg">
<path d="M16.8817 17.2458L11.5643 11.4102C12.7624 10.1493 13.4209 8.5005 13.4209 6.75C13.4209 4.9473 12.723 3.2517 11.4552 1.9773C10.1874 0.7029 8.50259 0 6.71045 0C4.91831 0 3.23265 0.702 1.96571 1.9773C0.698782 3.2526 0 4.9473 0 6.75C0 8.5527 0.697887 10.2483 1.96571 11.5227C3.23354 12.7971 4.91831 13.5 6.71045 13.5C8.25475 13.5 9.71852 12.9789 10.9049 12.0195L16.2223 17.8542C16.3109 17.9514 16.4308 18 16.5524 18C16.6607 18 16.769 17.9613 16.8549 17.8821C17.0374 17.7138 17.049 17.4294 16.8826 17.2467L16.8817 17.2458ZM0.893832 6.75C0.893832 3.5244 3.50286 0.9 6.70956 0.9C9.91626 0.9 12.5253 3.5244 12.5253 6.75C12.5253 9.9756 9.91626 12.6 6.70956 12.6C3.50286 12.6 0.893832 9.9756 0.893832 6.75Z" fill="#252525"/>
</svg>
